<svg width="36" height="36" viewBox="0 0 196 196" fill="none" xmlns="http://www.w3.org/2000/svg">
<path d="M36.2872 174.775C33.0766 173.884 30.7546 171.096 30.4587 167.777L16.6335 12.7104C16.2162 8.03028 19.9031 4 24.6019 4H171.188C175.887 4 179.574 8.03085 179.157 12.7113L165.317 167.747C165.021 171.066 162.698 173.855 159.486 174.745L99.9294 191.256C98.5301 191.644 97.0515 191.644 95.6523 191.255L36.2872 174.775Z" stroke="#FFDB70" stroke-width="8"/>
<path fill-rule="evenodd" clip-rule="evenodd" d="M142.176 146.275L142.501 142.62L147.585 85.6605L148.113 79.8507H69.2668L67.2895 57.6955H97.859H150.012L150.516 52.8325L151.502 41.8642L152.019 36.0597H97.859H43.6445L44.1624 41.8642L49.48 101.486H97.8964H124.463L121.952 129.546L97.8925 136.04L73.7058 129.56L72.1655 112.304H60.4569H50.4467L53.4779 146.275L97.7968 158.579L142.176 146.275Z" fill="#FFDB70"/>
</svg>
