<svg width="496" height="416" viewBox="0 0 496 416" fill="none" xmlns="http://www.w3.org/2000/svg">
<path d="M456 0H40C17.944 0 0 17.944 0 40V328C0 350.056 17.944 368 40 368H144V400H112V416H384V400H352V368H456C478.056 368 496 350.056 496 328V40C496 17.944 478.056 0 456 0ZM40 352C26.768 352 16 341.232 16 328V320H216V352H40ZM336 400H160V368H220.448C226 377.52 236.208 384 248 384C259.792 384 270 377.52 275.552 368H336V400ZM232 224H224H216V208H240H256H280V224H272H264H232ZM264 240V352C264 360.824 256.824 368 248 368C239.176 368 232 360.824 232 352V240H264ZM480 328C480 341.232 469.232 352 456 352H280V320H480V328ZM480 304H280V240H296V192H256V176C256 167.176 248.824 160 240 160H104V96H120V144H376V32H120V80H104C95.176 80 88 87.176 88 96V160C88 168.824 95.176 176 104 176H240V192H200V240H216V304H16V40C16 26.768 26.768 16 40 16H456C469.232 16 480 26.768 480 40V304ZM136 96V48H360V96H344V112H360V128H136V112H328V96H136Z" fill="#FFDB70"/>
<path d="M360 264C360 268.408 356.416 272 352 272C347.584 272 344 268.408 344 264V240H336C331.584 240 328 236.408 328 232V192H312V232C312 242.432 318.688 251.328 328 254.632V264C328 277.232 338.768 288 352 288C365.232 288 376 277.232 376 264V160H360V264Z" fill="#FFDB70"/>
<path d="M144 288C157.232 288 168 277.232 168 264V222.632C177.312 219.328 184 210.432 184 200V192H168V200C168 204.408 164.416 208 160 208H152V264C152 268.408 148.416 272 144 272C139.584 272 136 268.408 136 264V192H120V264C120 277.232 130.768 288 144 288Z" fill="#FFDB70"/>
</svg>
