<svg width="36" height="36" viewBox="0 0 250 250" fill="none" xmlns="http://www.w3.org/2000/svg">
<rect x="6" y="6" width="238" height="238" rx="17" stroke="#FFDB70" stroke-width="12"/>
<path d="M129.096 182.688V128.928H141.384V182.944C141.384 187.211 140.701 191.179 139.336 194.848C138.056 198.517 136.136 201.76 133.576 204.576C131.016 207.307 127.816 209.44 123.976 210.976C120.221 212.512 115.869 213.28 110.92 213.28C106.824 213.28 102.941 212.725 99.272 211.616C95.688 210.421 92.488 208.715 89.672 206.496C86.856 204.192 84.5947 201.376 82.888 198.048C81.2667 194.72 80.3707 190.923 80.2 186.656H91.592C92.4453 191.776 94.6213 195.659 98.12 198.304C101.619 200.864 105.885 202.144 110.92 202.144C115.187 202.144 118.643 201.291 121.288 199.584C123.933 197.877 125.896 195.573 127.176 192.672C128.456 189.771 129.096 186.443 129.096 182.688ZM155.98 184.736H167.756C168.012 188.064 169.121 191.093 171.084 193.824C173.132 196.469 175.863 198.56 179.276 200.096C182.775 201.632 186.828 202.4 191.436 202.4C195.447 202.4 198.775 201.845 201.42 200.736C204.065 199.627 206.028 198.133 207.308 196.256C208.673 194.293 209.356 191.989 209.356 189.344C209.356 186.699 208.631 184.608 207.18 183.072C205.729 181.451 203.553 180.128 200.652 179.104C197.751 177.995 194.167 176.928 189.9 175.904C186.145 174.965 182.433 173.856 178.764 172.576C175.18 171.211 171.852 169.547 168.78 167.584C165.793 165.621 163.361 163.275 161.484 160.544C159.692 157.728 158.796 154.357 158.796 150.432C158.796 146.251 159.948 142.453 162.252 139.04C164.556 135.541 167.927 132.768 172.364 130.72C176.887 128.587 182.348 127.52 188.748 127.52C198.647 127.52 206.113 129.995 211.148 134.944C216.268 139.893 218.743 146.507 218.572 154.784H207.052C206.796 148.981 204.961 144.843 201.548 142.368C198.135 139.808 193.697 138.528 188.236 138.528C183.543 138.528 179.532 139.509 176.204 141.472C172.876 143.349 171.212 146.336 171.212 150.432C171.212 152.224 171.596 153.803 172.364 155.168C173.132 156.448 174.412 157.643 176.204 158.752C177.996 159.861 180.385 160.928 183.372 161.952C186.444 162.976 190.241 164.085 194.764 165.28C198.177 166.048 201.463 167.029 204.62 168.224C207.863 169.419 210.764 170.912 213.324 172.704C215.884 174.496 217.889 176.8 219.34 179.616C220.876 182.432 221.644 185.888 221.644 189.984C221.644 194.336 220.577 198.304 218.444 201.888C216.311 205.387 212.983 208.203 208.46 210.336C204.023 212.384 198.263 213.408 191.18 213.408C185.548 213.408 180.641 212.683 176.46 211.232C172.364 209.781 168.908 207.904 166.092 205.6C163.361 203.296 161.185 200.821 159.564 198.176C158.028 195.531 156.961 193.013 156.364 190.624C155.852 188.235 155.724 186.272 155.98 184.736Z" fill="#FFDB70"/>
</svg>
