<svg width="459" height="459" viewBox="0 0 459 459" fill="none" xmlns="http://www.w3.org/2000/svg">
<path d="M118.388 307.915L103.566 304.09C100.793 314.705 99.4546 325.605 99.4546 336.603C99.359 356.301 103.853 375.809 112.555 393.5L126.325 386.806C118.675 371.219 114.755 354.006 114.755 336.603C114.755 326.944 115.998 317.286 118.388 307.916L118.388 307.915Z" fill="#FFDB70"/>
<path d="M338.513 300.737C347.788 329.137 345.685 359.929 332.68 386.8L346.45 393.493C361.176 363.085 363.566 328.086 353.048 295.958L338.513 300.737Z" fill="#FFDB70"/>
<path d="M229.5 221.85C243.844 221.85 257.997 224.527 271.384 229.691L276.93 215.443C246.139 203.49 212 203.586 181.301 215.73L186.943 229.978C200.521 224.623 214.961 221.85 229.496 221.85L229.5 221.85Z" fill="#FFDB70"/>
<path d="M451.35 405.45H443.7V122.4C443.7 109.777 433.373 99.45 420.75 99.45H397.8V22.95C397.8 10.3271 387.473 0 374.85 0H84.15C71.5271 0 61.2 10.3271 61.2 22.95V99.45H38.25C25.6271 99.45 15.3 109.777 15.3 122.4V405.45H7.65C3.4425 405.45 0 408.892 0 413.1V436.05C0 448.673 10.3271 459 22.95 459H436.05C448.673 459 459 448.673 459 436.05V413.1C459 408.892 455.557 405.45 451.35 405.45ZM30.6 122.4C30.6 118.192 34.0425 114.75 38.25 114.75H61.2V130.05C61.2 142.673 71.5271 153 84.15 153H206.55V137.7H84.15C79.9425 137.7 76.5 134.257 76.5 130.05V22.95C76.5 18.7425 79.9425 15.3 84.15 15.3H374.85C379.057 15.3 382.5 18.7425 382.5 22.95V130.05C382.5 134.257 379.057 137.7 374.85 137.7H344.25V153H374.85C387.473 153 397.8 142.673 397.8 130.05V114.75H420.75C424.957 114.75 428.4 118.192 428.4 122.4V405.45H283.05C281.042 405.45 279.034 406.215 277.599 407.649L272.149 413.1H186.66L181.21 407.649C179.775 406.215 177.863 405.45 175.759 405.45H30.6012L30.6 122.4ZM443.7 436.05C443.7 440.257 440.257 443.7 436.05 443.7H22.95C18.7425 443.7 15.3 440.257 15.3 436.05V420.75H172.794L178.244 426.201C179.679 427.635 181.591 428.4 183.695 428.4H275.495C277.503 428.4 279.511 427.635 280.946 426.201L286.396 420.75H443.698L443.7 436.05Z" fill="#FFDB70"/>
<path d="M279.894 298.35L193.544 384.7L204.349 395.505L225.674 374.18L246.999 395.505L257.804 384.7L236.479 363.375L248.624 351.23L292.899 395.505L303.704 384.7L259.429 340.425L294.714 305.14C329.235 294.525 354.098 264.403 357.923 228.544L359.453 215.061C359.931 210.854 356.871 207.124 352.663 206.646C352.09 206.551 351.516 206.551 350.942 206.646L337.459 208.176C301.599 212.097 271.477 236.959 260.863 271.384L225.673 306.67L190.579 271.575L196.603 265.551L185.798 254.745L180.634 259.909L175.757 235.716C175.183 233.038 173.271 230.839 170.689 229.978L101.839 207.028C97.8228 205.69 93.5197 207.889 92.1809 211.905C91.7027 213.435 91.7027 215.156 92.1809 216.782L115.131 285.632C115.991 288.214 118.191 290.222 120.868 290.7L145.062 295.577L139.898 300.741L150.703 311.546L156.728 305.522L191.822 340.616L147.548 384.891L158.353 395.696L267.743 286.21L279.894 298.35ZM339.277 223.285L343.293 222.807L342.815 226.823C339.659 255.606 320.248 280.086 292.803 289.648L276.451 273.296C286.014 245.852 310.398 226.44 339.277 223.285L339.277 223.285ZM128.233 276.452L116.949 242.6L139.899 265.55L150.705 254.745L127.755 231.795L161.606 243.079L167.535 272.914L158.068 282.38L128.233 276.452ZM167.63 294.525L179.775 282.38L214.869 317.475L202.725 329.62L167.63 294.525Z" fill="#FFDB70"/>
<path d="M99.4512 68.8499H198.901V84.1499H99.4512V68.8499Z" fill="#FFDB70"/>
<path d="M237.147 155.772V183.598C237.147 187.806 240.589 191.248 244.797 191.248H305.997C310.204 191.248 313.647 187.806 313.647 183.598V156.154L322.253 147.547C326.556 143.244 328.947 137.411 328.947 131.291V111.879C328.947 100.978 321.201 91.5109 310.491 89.4073L290.697 85.4867V53.5482C290.697 40.8299 280.465 30.5981 267.747 30.5981C255.028 30.5981 244.797 40.8299 244.797 53.5482V96.2929L241.067 92.5635C232.557 84.0529 218.787 84.0529 210.276 92.5635C202.339 100.5 201.765 113.219 208.937 121.92L237.147 155.772ZM252.447 175.948V160.648H298.347V175.948H252.447ZM221.082 103.369C223.568 100.882 227.68 100.882 230.262 103.369L246.996 120.103C249.961 123.068 254.838 123.068 257.802 120.103C259.236 118.669 260.001 116.756 260.001 114.653V53.548C260.001 49.3405 263.443 45.898 267.651 45.898C271.858 45.898 275.301 49.3405 275.301 53.548V91.798C275.301 95.4317 277.883 98.5873 281.421 99.2567L307.336 104.42C310.874 105.185 313.456 108.245 313.456 111.879V131.291C313.456 133.299 312.691 135.307 311.256 136.742L302.65 145.348H248.24L220.508 112.166C218.5 109.584 218.691 105.759 221.082 103.369L221.082 103.369Z" fill="#FFDB70"/>
<path d="M321.301 68.8499H359.551V84.1499H321.301V68.8499Z" fill="#FFDB70"/>
</svg>
