<svg width="36" height="36" viewBox="0 0 131 193" fill="none" xmlns="http://www.w3.org/2000/svg">
<path fill-rule="evenodd" clip-rule="evenodd" d="M34.6769 0H96.3231C115.466 0 131 15.5626 131 34.7402C131 48.1795 123.371 59.8429 112.218 65.6197C123.371 71.3967 131 83.0606 131 96.4998C131 115.677 115.466 131.24 96.3231 131.24C85.4341 131.24 75.7127 126.204 69.3539 118.332V158.26C69.3539 177.437 53.8196 193 34.6769 193C15.5343 193 0 177.437 0 158.26C0 144.821 7.62873 133.157 18.7819 127.38C7.62873 121.603 0 109.939 0 96.4998C0 83.0606 7.62865 71.3967 18.7817 65.6197C7.62868 59.8429 0 48.1795 0 34.7402C0 15.5626 15.5343 0 34.6769 0ZM7.70588 34.7402C7.70588 19.8263 19.7901 7.72 34.6769 7.72H61.6461V61.7595H34.6769L34.5933 61.7596C19.7448 61.7144 7.70588 49.6261 7.70588 34.7402ZM61.648 96.1323C61.6468 96.2547 61.6461 96.3771 61.6461 96.4998C61.6461 96.6224 61.6468 96.7449 61.648 96.8672V123.519H34.6768C19.7901 123.52 7.70588 111.414 7.70588 96.4998C7.70588 81.6135 19.7453 69.5245 34.594 69.4796L34.6769 69.4797H61.6461L61.648 96.1323ZM69.3539 96.8234V96.1761C69.5268 81.4479 81.4842 69.539 96.2126 69.4797H96.3231C96.3507 69.4797 96.3783 69.4797 96.406 69.4796C111.255 69.5245 123.294 81.6135 123.294 96.4998C123.294 111.414 111.21 123.52 96.3231 123.52C81.5441 123.52 69.5272 111.588 69.3539 96.8234ZM74.5324 69.4797C72.6299 71.0219 70.8934 72.7615 69.3539 74.6673V69.4797H74.5324ZM96.4067 61.7596C96.3788 61.7596 96.3509 61.7595 96.3231 61.7595C96.2809 61.7595 96.2388 61.7596 96.1967 61.7597H69.3539V7.72H96.3231C111.21 7.72 123.294 19.8263 123.294 34.7402C123.294 49.6261 111.255 61.7144 96.4067 61.7596ZM34.6769 131.24C19.7901 131.24 7.70588 143.346 7.70588 158.26C7.70588 173.174 19.7901 185.28 34.6769 185.28C49.5638 185.28 61.648 173.174 61.648 158.26V131.24H34.6769Z" fill="#FFDB70"/>
</svg>
